<?xml version="1.0" encoding="utf-8"?>
<!-- Generator: Adobe Illustrator 24.3.0, SVG Export Plug-In . SVG Version: 6.00 Build 0)  -->
<svg version="1.1"
	 id="svg2" inkscape:output_extension="org.inkscape.output.svg.inkscape" inkscape:version="0.46" sodipodi:docname="hamburger icon.svg" sodipodi:version="0.32" xmlns:cc="http://creativecommons.org/ns#" xmlns:dc="http://purl.org/dc/elements/1.1/" xmlns:inkscape="http://www.inkscape.org/namespaces/inkscape" xmlns:rdf="http://www.w3.org/1999/02/22-rdf-syntax-ns#" xmlns:sodipodi="http://sodipodi.sourceforge.net/DTD/sodipodi-0.dtd" xmlns:svg="http://www.w3.org/2000/svg"
	 xmlns="http://www.w3.org/2000/svg" xmlns:xlink="http://www.w3.org/1999/xlink" x="0px" y="0px" viewBox="0 0 708 586"
	 style="enable-background:new 0 0 708 586;" xml:space="preserve">
<style type="text/css">
	.st0{fill:#FFFF00;}
</style>
<inkscape:perspective  id="perspective10" inkscape:persp3d-origin="372.04724 : 350.78739 : 1" inkscape:vp_x="0 : 526.18109 : 1" inkscape:vp_y="0 : 1000 : 0" inkscape:vp_z="744.09448 : 526.18109 : 1" sodipodi:type="inkscape:persp3d">
	</inkscape:perspective>
<g>
	<g>
		<g>
			<path class="st0" d="M544,235.3c-3.5,0-6.9-2.1-8.3-5.5c-14.2-33.5-37-63-65.8-85.4c-4-3.1-4.7-8.8-1.6-12.7
				c3.1-4,8.8-4.7,12.7-1.6c31.3,24.3,55.9,56.4,71.4,92.7c2,4.6-0.2,9.9-4.8,11.9C546.4,235.1,545.2,235.3,544,235.3z"/>
		</g>
	</g>
	<g>
		<g>
			<path class="st0" d="M437.8,122.6c-1.4,0-2.7-0.3-4-1c-4.5-2.2-9.1-4.3-13.8-6.3c-4.6-1.9-6.8-7.2-4.9-11.8
				c1.9-4.6,7.2-6.8,11.8-4.9c5,2.1,10,4.4,14.9,6.8c4.5,2.2,6.3,7.7,4.1,12.2C444.3,120.7,441.1,122.6,437.8,122.6z"/>
		</g>
	</g>
	<g>
		<path class="st0" d="M358.1,279.5H178.7c-17.5,0-31.7-14.3-31.7-31.7v-2.1c16.3-107.3,109-189.5,220.8-189.5
			c19.3,0,38.1,2.4,55.9,7.1c-54.7,3-136.5,18.7-180.7,81.4C187.5,223.5,267.3,269.8,358.1,279.5z"/>
	</g>
	<g>
		<path class="st0" d="M351.9,185c0,11.8-9.6,21.4-21.4,21.4c-11.8,0-21.4-9.6-21.4-21.4c0-11.8,9.6-21.4,21.4-21.4
			C342.3,163.6,351.9,173.2,351.9,185z"/>
	</g>
	<g>
		<path class="st0" d="M283.9,206.4c0,11.8-9.6,21.4-21.4,21.4c-11.8,0-21.4-9.6-21.4-21.4c0-11.8,9.6-21.4,21.4-21.4
			C274.3,185,283.9,194.6,283.9,206.4z"/>
	</g>
	<g>
		<path class="st0" d="M245.2,443.7c0,7-5.7,12.6-12.6,12.6c-7,0-12.6-5.7-12.6-12.6c0-7,5.7-12.6,12.6-12.6
			C239.5,431.1,245.2,436.7,245.2,443.7z"/>
	</g>
	<g>
		<g>
			<path class="st0" d="M556.9,288.6H178.7c-22.5,0-40.8-18.3-40.8-40.8l0.1-3.5c8.3-54.4,35.8-104.3,77.6-140.5
				c42.2-36.6,96.3-56.7,152.2-56.7c55.9,0,110,20.1,152.2,56.7c41.8,36.2,69.4,86.1,77.6,140.5l0.1,1.4v2.1
				C597.7,270.3,579.4,288.6,556.9,288.6z M156,246.4v1.4c0,12.5,10.2,22.7,22.7,22.7h378.2c12.5,0,22.7-10.2,22.7-22.7v-1.4
				c-16.1-103.3-107-181.1-211.8-181.1S172.1,143.1,156,246.4z"/>
		</g>
	</g>
	<g>
		<path class="st0" d="M365.4,496.1H204.5c-28.7,0-53.9-23.4-56-52l-1.5-19.5c-2.1-28.6,19.7-52,48.4-52h74.8
			c-33.9,9.5-70.6,26.2-69.7,54.4C201.8,465.1,253.6,488.1,365.4,496.1z"/>
	</g>
	<g>
		<path class="st0" d="M305.3,127c0,11.8-9.6,21.4-21.4,21.4c-11.8,0-21.4-9.6-21.4-21.4s9.6-21.4,21.4-21.4
			C295.7,105.6,305.3,115.2,305.3,127z"/>
	</g>
	<g>
		<g>
			<path class="st0" d="M573.2,281.4c0.2,0.1,0.4,0.1,0.6,0.2C573.6,281.6,573.4,281.5,573.2,281.4z"/>
		</g>
		<g>
			<path class="st0" d="M576.9,282.8c0.2,0.1,0.4,0.2,0.6,0.2C577.3,282.9,577.1,282.9,576.9,282.8z"/>
		</g>
		<g>
			<path class="st0" d="M564.5,279.7c0.2,0,0.5,0,0.7,0.1C565,279.8,564.7,279.8,564.5,279.7z"/>
		</g>
		<g>
			<path class="st0" d="M579.9,284.2c-9.1,2-23.6,5.7-35.9,10.7c-19.4,7.9-57.7,54.4-57.7,54.4c-24.4,23.2-49.9-21-68-38.6
				c-19.5-18.9-25.5-22.1-66.3-26.1l-0.7-5.1h-177c-23.7,0-43.1,19.4-43.1,43.1c0,23.7,19.4,43.1,43.1,43.1h386.4
				c23.7,0,43.1-19.4,43.1-43.1C603.7,305.9,593.9,291.3,579.9,284.2z"/>
		</g>
		<g>
			<path class="st0" d="M568.8,280.4c0.3,0.1,0.6,0.1,0.9,0.2C569.4,280.5,569.1,280.4,568.8,280.4z"/>
		</g>
	</g>
	<g>
		<path class="st0" d="M374.6,372.5v6.3c-0.4,0-0.7-0.1-1.1-0.1h-1.1c-7.5,0-13.6,6.1-13.6,13.6v38.1c0,7.5-6.1,13.6-13.6,13.6H344
			c-7.5,0-13.6-6.1-13.6-13.6v-35.2c0-7.5-6.1-13.6-13.6-13.6h-1.1c-7.5,0-13.6,6.1-13.6,13.6v72.6c0,7.5-6.1,13.6-13.6,13.6h-1.1
			c-7.5,0-13.6-6.1-13.6-13.6v-64.1h-0.2v-7c0-7.5-6.1-13.6-13.6-13.6h-1.1c-7.5,0-13.6,6.1-13.6,13.6v7h-0.7v2.6
			c0,7.5-6.1,13.6-13.6,13.6h-1.1c-7.5,0-13.6-6.1-13.6-13.6v-12.9c0-7.5-6.1-13.6-13.6-13.6h-1.1c-1.1,0-2.1,0.1-3.1,0.4v-7.6
			H374.6z"/>
	</g>
	<g>
		<g>
			<path class="st0" d="M533.9,459.3c-3.1,0-6.2-1.4-8.2-4.1c-3.4-4.5-2.5-10.9,2-14.3c10.9-8.2,10.2-21.1,10.1-21.6
				c-0.4-5.6,3.8-10.5,9.4-10.9c5.6-0.4,10.5,3.6,11,9.2c0.1,1,2,24.6-18.2,39.7C538.2,458.6,536.1,459.3,533.9,459.3z"/>
		</g>
	</g>
	<g>
		<g>
			<path class="st0" d="M531.1,505.2H204.5c-33.4,0-62.6-27.1-65-60.4l-1.4-19.6c-1.2-16.4,4.1-31.9,15-43.6
				c10.9-11.7,25.9-18.2,42.4-18.2h344.7c16.4,0,31.5,6.5,42.4,18.2c10.9,11.7,16.2,27.2,15,43.6l-1.4,19.6
				C593.7,478.1,564.5,505.2,531.1,505.2z M195.4,381.6c-11.3,0-21.7,4.4-29.1,12.4c-7.4,8-11,18.6-10.2,29.9l1.4,19.6
				c1.8,24,22.8,43.6,46.9,43.6h326.6c24.1,0,45.2-19.6,46.9-43.6l1.4-19.6c0.8-11.3-2.8-21.9-10.2-29.9c-7.4-8-17.7-12.4-29.1-12.4
				H195.4z"/>
		</g>
	</g>
</g>
</svg>
